<svg width="648" height="648" fill="none" xmlns="http://www.w3.org/2000/svg"><path d="M430.991 608.644c-6.355 8.261-13.924 15.321-22.521 19.389-4.303 2.035-8.848 3.111-13.386 3.702-4.618.161-9.201.152-13.744-1.092-9.084-2.053-17.887-6.529-25.942-12.445-8.089-5.871-15.608-12.915-22.538-20.61a273.313 273.313 0 01-19.543-24.493c-3.518-5.067-6.908-10.233-10.219-15.463a491.678 491.678 0 01-22.387 14.159c10.704 14.93 22.506 29.201 36.122 42.023 8.418 7.899 17.497 15.32 27.738 21.376 10.166 6.05 21.637 10.894 34.091 12.352 6.172.909 12.597.352 18.774-.678 6.154-1.454 12.096-3.678 17.378-6.939 10.538-6.56 18.454-15.914 24.125-25.913 11.317-20.178 16.21-42.301 18.752-64.195-3.145 10.588-6.578 21.036-10.986 30.973-4.294 9.957-9.399 19.513-15.714 27.854zm-315.593-58.635c-3.098-3.719-5.264-8.52-7.04-13.647l-1.187-3.963-.844-4.206-.335-1.677-.089-.432-.254-2.196-.538-4.397c-.339-6.01-.484-12.153.067-18.428.92-12.53 3.392-25.28 6.66-37.93 6.668-25.316 16.655-50.183 28.219-74.313 11.512-24.163 24.725-47.561 39.104-70.356.258 1.307.513 2.611.776 3.912a896.572 896.572 0 003.654 17.14l-68.108 157.548c-.059.624-.144 1.246-.195 1.868h116.941l2.59-6.799c.004.018.013.034.02.047.008-.009.017-.02.03-.029 1.599 3.399 3.175 6.803 4.845 10.171 3.895 7.927 8.013 15.751 12.263 23.501a438.6 438.6 0 01-24.326 13.994c-11.394 5.985-23.04 11.313-34.841 15.524-11.78 4.114-23.772 7.471-35.344 8.414-2.87.185-5.769.459-8.533.312-2.849.092-5.485-.321-8.19-.561-3.438-.558-6.71-1.394-9.792-2.499-1.594-.566-3.154-1.19-4.62-1.937a38 38 0 01-6.401-4.449 36.745 36.745 0 01-4.532-4.612zm238.301-195.71h-66.615l33.306-87.172 33.309 87.172zM199.576 206.405c6.587.064 13.169.216 19.74.45a854.1 854.1 0 0113.294.704v.016a882.873 882.873 0 0114.323 1.003c.666.051 1.332.105 1.997.156 3.776.299 7.583.633 11.385.985 3.615.339 7.228.674 10.839 1.073 4.569.488 9.072 1.014 13.408 1.576 21.69 2.71 43.309 6.236 64.75 10.679 21.47 4.304 42.767 9.442 63.789 15.456.91.255 1.819.529 2.729.785 3.439.974 6.862 1.982 10.278 3.014 1.768.532 3.536 1.067 5.304 1.616 1.937.604 3.875 1.23 5.808 1.852 2.107.682 4.212 1.36 6.311 2.058 2.574.853 5.142 1.709 7.704 2.59 8.056 2.764 16.082 5.633 24.033 8.657 6.974 2.651 13.867 5.475 20.72 8.382a688.724 688.724 0 01-37.933 58.731c-.964 1.338-1.969 2.644-2.939 3.977l-30.271-70.017a618.753 618.753 0 00-15.269-4.488c-21.024-6.011-42.321-11.149-63.786-15.458-21.441-4.44-43.06-7.965-64.75-10.675-14.125-1.835-32.848-3.669-47.855-4.752l-8.442 19.533c.055-.009.102-.02.157-.029.019.223.037.455.064.682 2.186 21.363 5.327 42.678 9.295 63.845 3.84 21.196 8.579 42.258 14.001 63.116 5.319 20.893 11.573 41.53 18.426 61.926.531 1.56 1.095 3.107 1.651 4.654H361.1c-2.552 2.487-5.078 5.004-7.655 7.46-19.201 18.219-39.214 35.55-60.205 51.372a510.543 510.543 0 01-16.549 12.164c-6.939-14.351-13.323-29.016-19.21-43.909a777.339 777.339 0 01-6.282-16.45l1.397-3.671c-.818.283-1.635.555-2.449.833a751.023 751.023 0 01-6.079-17.204 949.614 949.614 0 01-9.796-30.776 788.366 788.366 0 01-8.636-31.149 935.013 935.013 0 01-7.592-31.43 816.056 816.056 0 01-6.41-31.686c-1.309-6.995-2.495-14.017-3.623-21.038a700.177 700.177 0 01-.957-6.13c-.229-1.48-.481-2.949-.697-4.429-.013-.085-.024-.172-.037-.252-.026-.172-.046-.343-.068-.511a765.235 765.235 0 01-2.098-15.476c-.272-2.225-.5-4.454-.755-6.678-.36-3.108-.742-6.219-1.06-9.336-.025-.227-.042-.454-.063-.682a647.424 647.424 0 01-2.7-33.119zm3.001-93.637c1.543-10.336 3.43-20.61 6.196-30.449 2.69-9.85 6.062-19.397 10.464-28.048 4.419-8.589 9.765-16.4 16.303-21.99 6.586-5.392 14.14-8.771 22.631-9.181 8.473-.468 17.612 2.057 26.437 6.201 8.848 4.235 17.313 10.131 25.341 16.772 16.141 13.325 30.284 29.782 43.368 47.048 6.121 8.065 11.921 16.431 17.524 24.953a487.75 487.75 0 00-27.696 22.243c9.974-6.361 20.008-12.567 30.24-18.371 5.588 8.47 10.882 17.15 16.146 25.899-3.586-9.58-7.638-18.976-11.881-28.318.064-.033.128-.071.19-.107 11.717-6.609 23.645-12.77 35.845-18.158 12.196-5.374 24.551-10.231 37.124-13.914 12.556-3.58 25.358-6.208 37.834-6.444a90.994 90.994 0 019.181.22c9.097.694 17.698 2.898 24.582 7.288 4.611 2.857 8.385 6.626 11.47 10.913 2.205 3.121 3.836 6.709 5.143 10.494.507 1.474.979 2.97 1.393 4.492l.959 4.179c.24 1.432.39 2.912.597 4.356l.305 2.173.114 2.247.271 4.483c-.006 6.088-.249 12.238-1.153 18.468-1.635 12.447-4.831 24.943-8.766 37.272-5.663 17.476-13.001 34.579-21.304 51.286-7.973-3.718-16.023-7.242-24.11-10.628-14.189-5.885-28.589-11.159-43.107-16.002-.004 0-.008 0-.008-.005a975.14 975.14 0 00-9.327-3.051c-4.097-1.307-8.193-2.615-12.308-3.85-8.085-2.383-16.215-4.59-24.366-6.712l-20.017-46.313H264.554l-9.882 22.857c-.762-.051-1.52-.078-2.283-.129a699.493 699.493 0 00-13.73-.725 594.39 594.39 0 00-18.516-.515c-7.16-.076-14.332.009-21.504.176-.064-20.576 1.089-41.093 3.938-61.11zm174.581 358.737a828.043 828.043 0 0015.247-14.972 871.874 871.874 0 0041.848-45.237c12.533-14.819 24.637-30.032 36.183-45.685 4.909-6.642 9.745-13.352 14.425-20.179 14.217-20.911 27.597-42.473 39.396-65.022 1.151-2.194 2.304-4.385 3.421-6.596a600.865 600.865 0 0010.378-21.631c2.488-5.47 4.9-10.987 7.155-16.584 5.215-13.08 9.877-26.455 13.637-40.219 3.772-13.756 6.558-27.944 7.685-42.609.637-7.309.568-14.81.127-22.328l-.643-5.698-.344-2.837-.569-2.86c-.394-1.904-.734-3.799-1.19-5.698l-1.684-5.675a94.733 94.733 0 00-2.916-7.467c-2.169-4.909-4.85-9.67-8.326-13.988-5.213-6.408-11.652-11.912-18.87-15.594-7.2-3.747-14.901-5.898-22.438-6.83-7.558-.947-14.997-.86-22.212-.058-14.451 1.607-27.985 5.764-40.957 10.746-12.924 5.123-25.34 11.154-37.157 18.107-11.756 6.799-23.066 14.219-33.985 22.132-4.382-9.123-9.029-18.133-14.053-26.985-11.041-19.346-23.98-37.805-39.888-54.369-8.063-8.174-17.019-15.748-27.361-21.985C283.707 5.296 271.608.56 258.197.062c-13.384-.677-27.236 4.211-37.968 12.042-10.726 7.947-18.631 18.194-24.799 28.755-12.255 21.296-18.677 44.089-22.984 66.736-4.353 22.627-6.078 45.377-6.676 68.015-4.803.404-9.601.832-14.4 1.38-22.903 2.655-45.802 6.839-68.243 14.061a218.12 218.12 0 00-22.763 8.693h-.008c-1.34.6-2.67 1.222-4.006 1.848a171.364 171.364 0 00-6.257 3.079c-1.335.706-2.67 1.426-3.997 2.173-1.327.744-2.65 1.511-3.963 2.305-6.562 3.956-12.912 8.517-18.75 13.954a98.084 98.084 0 00-3.441 3.368l-3.324 3.52c-1.064 1.23-2.047 2.572-3.064 3.858-2.103 2.499-3.799 5.43-5.537 8.277-.165.245-.284.528-.436.789-.683 1.192-1.246 2.478-1.853 3.72-.339.785-.712 1.54-1.068 2.307-.356.767-.69 1.543-.954 2.358-.52 1.632-1.063 3.253-1.547 4.887-.483 1.633-.907 3.283-1.178 4.982a58.42 58.42 0 00-.2 20.184 69.7 69.7 0 00.98 4.846c.288 1.194.602 2.378.954 3.539a69.743 69.743 0 003.849 10.06c2.017 4.28 4.336 8.297 6.875 12.093a102.17 102.17 0 002.607 3.727 120.946 120.946 0 005.587 7.042 149.309 149.309 0 005.973 6.555c8.168 8.462 17.074 15.878 26.455 22.449a277.147 277.147 0 007.075 4.839 278.949 278.949 0 0014.505 8.955 307.274 307.274 0 007.41 4.141 339.639 339.639 0 0022.755 11.201 368.28 368.28 0 007.727 3.368 688.178 688.178 0 01-14.052-9.288c-4.629-3.15-9.198-6.378-13.666-9.73a336.981 336.981 0 01-13.23-10.185 272.149 272.149 0 01-12.568-10.855 350.996 350.996 0 01-5.977-5.695c-3.925-3.843-7.715-7.787-11.272-11.875a146.456 146.456 0 01-5.142-6.263 125.375 125.375 0 01-4.739-6.465 102.518 102.518 0 01-2.191-3.321c-2.12-3.344-4.027-6.77-5.655-10.249a72.882 72.882 0 01-3.989-10.582c-1.013-3.548-1.666-7.097-1.912-10.592a41.37 41.37 0 01.081-6.883 35.26 35.26 0 011.267-6.605 39.78 39.78 0 011.039-3.181c.648-1.723 1.45-3.393 2.336-5.024a46.319 46.319 0 014.395-6.667c2.15-2.709 4.608-5.25 7.317-7.617 7.219-6.311 16.01-11.449 25.408-15.604 9.41-4.166 19.457-7.333 29.681-10.053 24.379-6.125 49.719-9.237 75.339-10.445.467 13.932 1.433 27.816 2.811 41.646v.006a726.245 726.245 0 003.747 30.969c.051.334.106.664.152.994a807.115 807.115 0 002.175 14.27c.606 3.738 1.267 7.463 1.925 11.183-18.843 23.548-36.214 48.413-51.673 74.679-13.849 23.873-26.133 48.932-35.027 75.815-4.455 13.434-7.982 27.361-9.86 41.935-1.021 7.267-1.322 14.777-1.271 22.375.42 7.675 1.043 15.468 3.349 23.343 2.255 7.809 5.417 15.775 10.627 22.857 1.394 1.924 2.924 3.754 4.53 5.524 4.304 4.712 9.297 8.831 14.74 12.092 2.234 1.304 4.523 2.423 6.841 3.426 5.515 2.374 11.217 3.982 16.859 5.096 3.98.58 8.011 1.23 11.911 1.3 3.972.309 7.804.129 11.657 0 15.354-.776 29.707-4.249 43.445-8.703 5.151-1.692 10.186-3.582 15.172-5.563a335.036 335.036 0 0024.319-10.811 451.28 451.28 0 0026.738-14.69 492.087 492.087 0 0023.4-14.814c30.273-20.325 58.217-43.652 84.588-68.413zm269.42-109.627a79.9 79.9 0 00-1.149-4.583c-.145-.506-.306-1.003-.458-1.5-.302-.986-.602-1.975-.937-2.945-.201-.591-.421-1.17-.637-1.754a81.18 81.18 0 00-.979-2.564c-.249-.613-.504-1.212-.762-1.816a73.7 73.7 0 00-1.06-2.374c-.28-.609-.565-1.217-.856-1.824-.37-.749-.756-1.495-1.142-2.24-.313-.602-.617-1.206-.939-1.796-.399-.734-.815-1.449-1.23-2.169-.33-.576-.648-1.157-.991-1.728a119.293 119.293 0 00-2.026-3.263c-.055-.085-.106-.176-.166-.261 0 .004-.004.004-.004.009a128.765 128.765 0 00-2.744-4.111c-7.151-10.173-15.386-19.109-24.148-27.221-16.435-15.256-34.523-27.85-53.25-38.962-4.045 9.423-8.418 18.664-12.977 27.794 7.691 4.178 15.185 8.631 22.497 13.295a242.725 242.725 0 0125.821 18.646c8.056 6.732 15.645 13.911 21.978 21.769a95.199 95.199 0 013.606 4.779 84.474 84.474 0 016.038 9.794c.042.087.088.168.13.255a66.28 66.28 0 012.544 5.541c.637 1.569 1.23 3.147 1.721 4.732.322 1.099.606 2.196.844 3.293.474 2.191.767 4.393.882 6.593a38.92 38.92 0 01.038 3.293 40.23 40.23 0 01-.741 6.544 41.829 41.829 0 01-1.832 6.449 42.228 42.228 0 01-2.998 6.214c-2.352 4.046-5.391 7.889-8.892 11.467a76.566 76.566 0 01-2.709 2.628 81.04 81.04 0 01-2.861 2.53 96.223 96.223 0 01-6.11 4.788c-3.979 2.866-8.239 5.479-12.652 7.904a176.584 176.584 0 01-4.46 2.363c-1.179.604-2.34 1.233-3.531 1.812-1.344.647-2.718 1.235-4.082 1.852-6.049 2.727-12.258 5.183-18.6 7.412a351.298 351.298 0 01-7.814 2.648c-3.339 1.09-6.718 2.089-10.108 3.056a339.46 339.46 0 01-13.865 3.64 416.16 416.16 0 01-8.127 1.862 389.19 389.19 0 01-7.596 1.649l-29.973-69.333a889.792 889.792 0 01-33.816 42.52 870.589 870.589 0 01-45.207 48.555l8.312 21.816h119.508l-17.096-39.55c13.446-.776 26.896-2.294 40.287-4.784 8.416-1.491 16.757-3.524 25.027-6.065a234.03 234.03 0 008.246-2.708 205.75 205.75 0 004.085-1.523c4.087-1.564 8.145-3.274 12.141-5.196 5.336-2.567 10.567-5.499 15.622-8.938 9.994-6.888 19.472-16.036 25.551-28.205 6.049-12.115 7.532-26.967 4.647-40.089z" fill="#000"/></svg>